<?xml version="1.0" encoding="utf-8" ?><svg xmlns="http://www.w3.org/2000/svg" xmlns:xlink="http://www.w3.org/1999/xlink" width="443" height="342" viewBox="0 0 443 342"><clipPath id="cl_3"><rect width="443" height="341.77151"/></clipPath><g clip-path="url(#cl_3)"><path fill="#808C96" transform="scale(0.334087 0.334087)" d="M609.89 51.853C619.088 45.0354 628.799 38.5497 639.957 35.4728C639.836 116.559 639.384 197.676 640.349 278.792C636.308 278.069 632.146 278.159 628.316 276.802C605.065 264.373 582.417 250.889 560.072 236.952C553.859 233.543 547.014 226.183 539.535 230.738C521.561 239.637 505.186 251.432 487.183 260.301C475.693 265.58 465.591 274.69 452.563 275.866C453.015 237.224 454.251 198.581 453.437 159.968C465.922 147.117 482.056 138.942 496.652 128.837C534.499 103.346 572.074 77.4338 609.89 51.853Z"/><path fill="#808C96" transform="scale(0.334087 0.334087)" d="M522.858 272.367C526.658 268.415 532.086 268.777 537.122 268.566C537.816 284.222 537.243 299.939 537.092 315.655C532.267 351.583 535.282 388.024 534.408 424.193C535.614 438.371 531.091 452.157 531.604 466.305C531.634 507.572 531.332 548.839 531.272 590.107C526.326 634.149 529.613 678.644 527.804 722.898C522.647 765.885 527.472 809.384 524.698 852.491C519.601 857.408 511.881 857.348 505.427 859.309C475.301 865.282 446.079 874.784 416.133 881.541C384.771 890.018 352.895 896.232 321.532 904.649C301.689 909.355 281.966 914.754 261.852 918.193C220.175 931.888 176.93 940.727 134.621 952.462C102.082 961.874 69.3314 972.492 35.3751 975.056C54.1929 962.869 77.0515 960.576 98.0104 953.94C129.766 943.201 161.943 933.668 192.914 920.787C215.622 910.893 240.471 907.846 263.722 899.581C267.702 898.706 269.783 895.086 271.411 891.677C273.522 865.403 269.542 838.705 274.578 812.672C275.905 784.769 273.884 756.684 277.262 728.901C278.378 696.865 278.197 664.768 278.981 632.731C283.203 602.595 284.59 572.188 284.65 541.781C288.631 516.803 286.128 491.433 287.756 466.305C291.797 445.37 288.993 423.982 290.199 402.836C294.512 396.139 303.468 394.63 310.042 390.709C361.188 363.891 411.248 335.082 462.243 308.023C482.84 296.802 503.859 286.213 522.858 272.367M469.843 382.413C454.312 390.98 438.088 398.19 422.768 407.119C422.828 426.667 423.009 446.214 422.617 465.732C440.892 458.643 458.835 450.679 476.869 443.017C481.453 442.142 480.518 436.742 480.789 433.394C480.216 416.621 480.397 399.879 479.824 383.137C478.769 377.767 472.858 381.116 469.843 382.413M377.171 431.041C364.324 438.884 349.125 443.288 338.269 454.058C337.726 470.438 337.605 486.878 338.631 503.258C350.663 499.307 362.032 493.666 373.733 488.869C379.161 486.184 385.766 484.133 388.872 478.462C389.746 462.353 389.746 446.154 389.445 430.045C386.912 424.585 380.699 429.593 377.171 431.041M438.63 495.174C432.569 498.01 422.406 499.91 422.949 508.507C423.733 524.676 421.26 541.358 424.185 557.195L427.141 558.704C444.119 553.425 460.494 545.974 476.869 539.005C478.287 520.182 477.382 501.237 477.201 482.383C463.329 482.625 451.628 491.313 438.63 495.174M357.449 534.722C350.271 538.161 342.189 539.85 335.856 544.827C334.952 555.868 335.675 566.969 335.404 578.04C335.615 584.888 334.167 592.641 339.204 598.282C353.649 590.318 369.813 585.582 383.594 576.441C384.228 575.355 385.464 573.153 386.067 572.037C386.821 555.295 386.972 538.462 386.248 521.72C375.573 523.289 367.219 530.679 357.449 534.722M471.049 577.558C454.824 587.573 435.132 592.007 420.114 603.561C420.054 621.691 419.632 639.941 420.416 658.071C420.687 661.962 425.723 660.544 427.985 659.519C442.279 654.029 456.785 648.93 470.295 641.691C472.708 639.881 477.382 638.614 476.688 634.722C476.477 617.045 476.899 599.368 476.507 581.721C477.442 578.01 474.215 575.597 471.049 577.558M343.667 630.982C339.867 632.731 335.615 633.817 332.479 636.653C331.936 655.024 332.569 673.456 332.298 691.857C344.873 688.358 357.298 684.195 369.451 679.428C374.517 677.226 380.006 674.934 383.323 670.288C383.926 652.913 382.569 635.537 383.534 618.191C369.089 618.01 356.755 626.125 343.667 630.982M420.084 698.554C418.787 716.352 419.963 734.24 419.421 752.099C437.213 752.008 454.553 745.492 470.446 737.92C472.436 718.222 471.712 698.222 471.079 678.433C453.468 683.229 436.037 689.594 420.084 698.554M364.475 714.904C351.96 720.303 338.45 723.169 326.417 729.655C327.081 748.086 326.99 766.578 326.478 785.04C339.958 784.889 351.93 778.192 364.264 773.607C370.868 771.073 377.352 768.117 383.202 764.075C382.72 746.699 382.418 729.293 383.413 711.948C376.99 712.189 370.386 712.068 364.475 714.904M419.33 794.663C418.878 812.672 418.938 830.681 419.3 848.69C433.081 848.087 446.2 843.381 459.559 840.304C465.741 838.886 474.004 836.262 473.642 828.449C473.703 811.435 474.879 794.301 472.858 777.378C454.251 780.002 436.821 788.117 419.33 794.663M326.9 819.46C325.12 835.478 326.297 851.767 326.447 867.876C327.503 868.992 329.614 871.225 330.639 872.341C341.496 869.445 352.292 866.428 363.45 864.799C368.275 863.14 374.789 863.653 377.985 858.977C378.679 841.994 378.196 825.01 378.106 808.027C360.615 808.479 343.215 813.517 326.9 819.46Z"/><path fill="#808C96" transform="scale(0.334087 0.334087)" d="M573.732 352.79C582.719 352.73 592.068 356.712 597.948 363.529C598.37 393.544 598.25 423.59 597.979 453.605C587.906 455.656 580.216 449.291 573.461 442.896C573.883 412.851 572.828 382.805 573.732 352.79Z"/><path fill="#808C96" transform="scale(0.334087 0.334087)" d="M616.464 371.282C626.416 372.307 637.272 374.872 645.385 380.603C645.505 412.398 646.078 444.344 644.932 476.109C634.317 478.945 623.069 472.851 616.193 465.098C616.042 433.846 615.65 402.443 616.464 371.282Z"/><path fill="#808C96" transform="scale(0.334087 0.334087)" d="M570.566 476.531C581.091 477.255 591.585 480.423 600.391 486.094C599.969 519.337 599.637 552.61 600.572 585.853C590.017 586.095 578.588 584.224 570.656 576.713C569.631 543.349 570.596 509.895 570.566 476.531Z"/><path fill="#808C96" transform="scale(0.334087 0.334087)" d="M615.68 494.239C624.938 496.501 635.403 498.01 642.912 504.103C643.907 536.441 642.369 568.87 643.214 601.268C633.413 601.449 622.285 600.454 616.042 591.826C615.319 559.307 616.012 526.758 615.68 494.239Z"/><path fill="#808C96" transform="scale(0.334087 0.334087)" d="M568.123 609.684C576.205 602.173 588.961 611.434 597.616 615.054C597.255 647.513 597.164 679.971 597.767 712.43C587.424 712.279 576.085 713.637 567.611 706.457C568.154 674.21 567.671 641.932 568.123 609.684Z"/><path fill="#808C96" transform="scale(0.334087 0.334087)" d="M615.349 620.846C624.728 622.022 633.925 624.677 642.882 627.724C643.033 661.057 642.641 694.391 643.062 727.694C633.443 728.117 624.094 726.246 615.771 721.39C615.288 687.875 615.258 654.36 615.349 620.846Z"/><path fill="#F9B21B" transform="scale(0.334087 0.334087)" d="M677.019 24.1906C685.976 27.2374 693.756 32.7277 700.994 38.7609C763.931 85.6088 828.225 130.647 891.946 176.348C894.841 177.646 897.676 179.033 900.51 180.572L902.41 181.658C915.287 215.564 924.093 250.889 937.543 284.584C941.132 294.419 946.137 304.162 944.871 314.962C939.895 313.725 935.161 311.975 930.908 309.17C886.91 281.206 842.489 253.875 798.189 226.364C796.198 226.153 792.248 225.67 790.288 225.459C790.016 288.687 791.042 351.945 790.981 415.204C791.192 420.603 790.318 426.908 794.902 430.89C803.406 437.949 813.75 442.021 823.37 447.27C844.329 458.824 865.529 470.076 887.603 479.397C892.79 481.991 899.063 484.586 900.812 490.77C906.934 508.266 908.442 526.939 913.689 544.707C918.062 563.198 926.475 581.027 926.114 600.393C899.696 594.058 875.48 581.238 850.3 571.404C832.296 564.556 815.227 555.687 797.616 547.965C794.841 570.951 797.133 594.179 796.53 617.256C795.475 651.404 799.606 685.371 799.546 719.459C800.692 752.943 799.274 786.609 800.963 820.063C812.302 828.72 827.019 830.078 840.106 834.905C865.016 843.472 890.378 850.561 915.408 858.796C922.344 860.606 929.461 862.054 936.698 862.265C936.156 841.239 936.125 820.184 935.07 799.158C931.964 774.663 932.416 749.927 933.08 725.311C937.513 724.678 941.976 724.255 946.499 724.074L949.395 723.893C954.913 729.534 960.372 735.688 961.789 743.743C969.418 777.498 981.36 810.078 988.447 843.984C992.277 863.743 1004.43 881.33 1004.7 901.813C969.63 897.831 935.311 888.691 900.36 883.744C828.285 872.642 756.904 857.439 684.558 848.238C681.542 829.686 683.231 810.892 682.779 792.22C682.236 738.946 682.658 685.673 682.176 632.43C678.949 581.208 679.854 529.865 679.311 478.552C676.235 380.03 676.295 281.417 676.295 182.864C676.748 129.983 675.059 77.0417 677.019 24.1906Z"/><path fill="#F9B21B" transform="scale(0.334087 0.334087)" d="M878.556 330.738C885.613 333.815 892.639 337.073 899.274 341.055C919.871 352.971 942.096 361.96 962.241 374.66C972.676 381.146 976.083 393.695 980.667 404.344C994.328 444.193 1006.03 484.737 1021.26 524.073C1045.32 597.859 1072.58 670.529 1096.86 744.225C1107.2 768.418 1111.28 794.723 1122.13 818.705C1130.64 837.65 1133.32 858.977 1144.66 876.654C1150.51 885.674 1151.11 897.499 1158.44 905.554C1202.05 922.024 1246.8 935.478 1290.44 951.949C1299.18 956.836 1310.61 957.168 1317.49 964.951C1300.96 964.498 1284.92 959.792 1268.66 957.349C1250.96 955.569 1234.25 948.993 1217 945.192C1170.56 936.926 1124.57 927.424 1078.28 918.314C1071.65 917.529 1062.63 918.193 1059.8 910.621C1045.17 877.318 1036.79 841.843 1026.26 807.182C1013.57 768.298 1000.39 729.444 990.468 689.715C984.075 675.235 980.637 659.79 975.45 644.919C972.917 622.113 961.789 601.751 955.848 579.88C951.475 565.732 948.761 551.162 944.117 537.135C925.933 489.412 913.87 439.668 896.922 391.523C891.222 371.131 881.843 351.764 878.556 330.738Z"/></g></svg>