<?xml version="1.0" encoding="utf-8" ?><svg xmlns="http://www.w3.org/2000/svg" xmlns:xlink="http://www.w3.org/1999/xlink" width="1536" height="1024" viewBox="0 0 1536 1024"><path fill="#858D97" transform="scale(1.23077 1.23077)" d="M576.883 294.367L577.362 294.823C577.831 298.28 577.415 305.869 577.319 309.743L576.647 338.096C575.57 376.443 574.775 414.798 574.261 453.157C557.405 457.969 537.786 462.356 520.621 466.566L444.395 485.251L444.075 485.027L444.161 484.497C462.049 479.857 487.011 470.441 505.108 464.378C507.151 419.819 508.953 375.25 510.514 330.672C532.867 318.997 554.994 306.894 576.883 294.367ZM545.431 410.576C545.404 413.269 544.894 424.903 545.852 426.325L559.989 421.973L560.257 405.887L559.786 405.449C554.976 407.086 550.191 408.796 545.431 410.576ZM546.596 357.927C546.585 360.706 546.362 372.087 546.667 374.189C551.686 372.001 555.924 370.261 561.069 368.405C561.154 365.352 561.626 354.245 561.035 351.723L546.596 357.927ZM546.795 332.55C547.013 336.832 546.555 344.969 546.926 348.174C551.777 345.87 556.661 343.635 561.577 341.47C561.608 339.188 562.082 326.083 561.092 324.892C556.653 327.255 551.042 330.045 546.795 332.55ZM536.885 337.633L523.655 344.356C523.713 347.019 523.338 357.654 523.856 359.168L524.048 359.283C528.795 356.717 532.453 355.046 537.413 352.897L537.731 338.211C537.468 338.004 537.158 337.693 536.885 337.633ZM524.008 384.008C528.085 382.207 532.342 380.391 536.372 378.524C536.733 373.239 537.025 369.188 536.841 363.885C536.361 363.425 536.384 363.269 535.917 363.195C531.674 365.244 527.41 367.248 523.125 369.209C523.064 372.332 522.7 381.341 523.257 383.916L524.008 384.008ZM560.535 378.614L546.021 384.744C545.995 388.043 545.735 397.772 546.176 400.54C551.262 398.833 555.409 397.228 560.374 395.181C560.425 391.202 560.813 382.183 560.535 378.614ZM521.514 419.048C521.3 423.823 521.216 428.603 521.262 433.383C521.489 433.578 521.815 433.924 522.051 433.976L535.025 429.465L535.316 415.086C535.072 414.902 534.828 414.718 534.584 414.534L521.514 419.048ZM559.425 432.233C554.527 433.686 549.649 435.205 544.793 436.79C544.765 440.106 544.521 449.078 544.962 451.866L545.306 452.138C550.125 450.883 554.932 449.583 559.728 448.24C559.81 444.875 560.215 435.466 559.813 432.609L559.425 432.233ZM522.331 394.137C522.203 398.651 521.91 403.862 522.286 408.306L522.946 408.956C526.877 407.548 531.995 405.877 535.733 404.219C535.745 402.225 536.166 389.637 535.549 388.932L522.331 394.137ZM534.381 439.676L520.459 443.232C520.388 447.187 520.063 454.027 520.572 457.727C521.437 458.142 521.045 458.168 521.772 457.958L534.467 455.015C534.611 450.23 534.922 444.678 534.655 439.958L534.381 439.676Z"/><path fill="#FAB31E" transform="scale(1.23077 1.23077)" d="M613.604 227.306C621.143 232.152 672.835 269.071 675.285 272.649C679.063 278.168 685.74 301.115 688.46 308.783C676.043 302.414 656.741 289.644 644.658 281.864C645.354 300.661 645.797 319.466 645.989 338.275C655.356 343.67 665.722 348.196 675.32 353.416C677.471 358.905 682.113 379.402 683.553 385.975C673.069 382.689 657.99 375.781 647.411 371.418C649.013 393.21 648.398 421.121 649.243 443.651C651.071 445.69 679.839 453.895 684.543 455.18C683.769 442.248 683.242 429.302 682.962 416.349C685.638 417.13 688.248 418.099 690.874 419.035C692.504 423.126 694.753 432.114 696.088 436.852C698.921 446.962 701.871 457.039 704.937 467.081C676.075 461.856 645.11 455.856 616.181 451.819C614.888 376.987 614.029 302.148 613.604 227.306Z"/><path fill="#FAB31E" transform="scale(1.23077 1.23077)" d="M667.992 310.599C673.906 313.526 690.235 320.763 693.998 325.174C697.094 328.803 737.945 450.144 743.657 466.631C755.651 471.111 779.521 478.387 789.671 483.343C785.952 483.192 768.993 479.682 764.231 478.657C749.658 475.519 732.703 473.149 718.46 469.541C711.982 452.768 705.504 429.135 699.884 411.493C688.974 377.951 678.343 344.318 667.992 310.599Z"/><path fill="#858D97" transform="scale(1.23077 1.23077)" d="M604.81 232.222C605.15 233.678 604.778 251.689 604.754 254.683C604.554 269.412 604.678 284.145 605.124 298.869C598.635 296.184 585.65 288.047 579.813 283.928C574.816 286.505 569.459 289.634 564.51 292.393L554.449 297.746L555.77 265.108C557.722 263.568 560.284 261.879 562.403 260.51C576.545 251.369 590.378 240.828 604.81 232.222Z"/><path fill="#1F232A" transform="scale(1.23077 1.23077)" d="M478.912 506.011C501.078 503.963 505.611 513.46 504.798 533.245C504.272 546.057 504.657 553.153 490.593 556.809C469.158 559.059 462.98 551.167 464.148 530.351C464.88 517.304 463.677 509.94 478.912 506.011ZM487.695 546.749C492.899 543.086 492.303 537.65 492.428 531.621C492.617 522.471 492.498 514.969 481.247 516.357C476.108 520.011 476.698 525.714 476.614 531.667C476.48 541.085 476.951 547.27 487.695 546.749Z"/><path fill="#1F232A" transform="scale(1.23077 1.23077)" d="M690.469 506.036C708.055 504.601 716.39 510.995 715.742 529.3C715.245 543.358 716.869 553.788 699.605 556.903C677.499 558.731 673.687 548.011 674.815 528.016C675.527 515.395 676.11 509.027 690.469 506.036ZM697.83 546.696C699.984 545.311 702.044 544.009 702.265 541.206C703.009 531.738 707.236 514.236 692.016 516.402C689.075 518.63 687.601 520.527 687.5 524.369C687.254 533.689 684.519 547.422 697.83 546.696Z"/><path fill="#1F232A" transform="scale(1.23077 1.23077)" d="M754.279 506.549L765.829 506.525C766.343 522.461 765.738 540.205 765.851 556.38L754.146 556.281C748.99 546.84 742.973 537.009 737.468 527.696L737.406 556.433L726.267 556.446L726.306 506.686C729.81 506.607 733.474 506.66 736.993 506.658C741.248 511.844 750.66 528.493 754.438 534.945L754.279 506.549Z"/><path fill="#1F232A" transform="scale(1.23077 1.23077)" d="M554.831 506.59L567.464 506.527C567.586 511.855 566.228 542.905 569.529 545.094C586.816 556.559 581.833 515.818 581.699 506.536L594.378 506.517C594.544 509.823 594.419 514.045 594.416 517.423C594.292 525.155 596.518 546.102 589.528 552.422C579.617 561.382 556.475 559.233 555.031 542.857C554.104 532.357 554.693 518.138 554.831 506.59Z"/><path fill="#1F232A" transform="scale(1.23077 1.23077)" d="M433.534 506.113C435.252 505.915 436.979 505.817 438.708 505.818C446.263 505.82 450.909 507.706 456.179 513.013L449.727 520.196C447.034 518.79 443.19 516.506 440.263 516.045C437.666 515.635 433.598 516.931 433.15 519.978C435.546 524.571 443.717 526.053 447.787 528.772C463.775 539.457 457.693 554.035 440.471 557.377C430.462 557.537 426.549 556.571 418.536 550.588C420.089 548.263 423.277 544.856 425.217 542.653C430.094 545.448 438.39 550.616 443.443 544.792C444.245 543.868 443.885 543.372 443.689 542.26C441.107 538.549 434.257 536.221 430.132 534.234C414.55 526.727 416.71 510.227 433.534 506.113Z"/><path fill="#1F232A" transform="scale(1.23077 1.23077)" d="M790.22 506.017C800.053 505.31 804.078 506.708 811.74 512.781C809.512 515.018 807.152 517.908 805.066 520.333C801.405 518.281 789.488 512.062 788.851 520.19C791.328 524.846 800.363 526.395 804.535 529.651C818.319 540.406 811.866 554.527 796.198 557.229C786.448 557.439 782.15 556.273 774.133 550.747L780.521 542.618C787.779 546.474 791.596 549.254 799.616 544.936L800.081 543.312C795.886 535.682 766.684 532.72 777.664 513.166C780.064 508.892 785.749 507.063 790.22 506.017Z"/><path fill="#1F232A" transform="scale(1.23077 1.23077)" d="M602.257 506.565L642.491 506.565L642.476 517.429C638.183 516.943 633.05 517.001 628.67 516.934C628.833 525.072 628.73 533.548 628.745 541.714L628.615 556.425L616.148 556.256C615.951 543.343 616.178 529.879 616.21 516.923L602.46 517.047L602.257 506.565Z"/><path fill="#1F232A" transform="scale(1.23077 1.23077)" d="M515.473 506.511L528.214 506.51L528.26 545.502L548.157 545.484L548.364 556.483C537.556 556.259 526.367 556.385 515.528 556.377L515.473 506.511Z"/><path fill="#1F232A" transform="scale(1.23077 1.23077)" d="M651.527 506.682L664.093 506.561L664.161 556.419L651.473 556.311L651.527 506.682Z"/><path fill="#1F232A" transform="scale(1.23077 1.23077)" d="M583.422 576.103L591.895 576.105C595.012 585.346 597.794 594.258 601.11 603.494C599.082 603.535 597.384 603.514 595.361 603.442C593.01 601.643 593.585 600.849 591.86 597.662C588.961 597.549 585.743 597.598 582.814 597.581C582.374 599.771 582.312 600.954 581.067 602.82C579.082 604.071 576.472 603.603 573.963 603.506C577.355 594.594 579.854 585.201 583.422 576.103ZM588.581 592.527L590.041 592.078C590.101 589.777 588.36 584.589 587.696 581.917C586.698 584.943 584.805 589.015 585.588 591.882C586.664 592.573 587.305 592.473 588.581 592.527Z"/><path fill="#1F232A" transform="scale(1.23077 1.23077)" d="M549.49 576.095C554.929 576.141 562.706 575.25 567.854 576.67C568.903 576.959 568.85 577.527 569.345 578.69C567.622 584.269 559.028 580.704 555.886 582.431C555.266 590.765 561.092 584.372 566.077 587.302C567.038 589.188 566.833 589.654 566.679 591.871C565.374 592.71 558.366 592.438 556.221 592.463C555.989 603.351 562.267 595.85 567.737 598.373C569.231 600.263 568.668 600.584 568.553 603.566L549.521 603.534C549.446 594.388 549.436 585.241 549.49 576.095Z"/><path fill="#1F232A" transform="scale(1.23077 1.23077)" d="M671.571 575.467C675.907 575.31 683.157 575.287 683.302 580.946C680.343 585.269 676.806 579.574 671.818 582.627C670.053 585.961 670.845 592.025 671.08 595.806C671.351 600.175 679.307 597.394 681.741 597.052C682.774 598.442 682.79 598.4 683.342 600.018C681.331 603.838 673.443 605.215 669.717 603.42C661.871 599.64 662.204 586.979 665.258 580.156C666.49 577.402 668.985 576.422 671.571 575.467Z"/><path fill="#1F232A" transform="scale(1.23077 1.23077)" d="M619.615 576.388L626.439 576.384L626.414 598.018C629.64 598.083 632.96 597.215 635.659 598.344C637.147 600.327 636.63 600.659 636.643 603.603C631.377 603.403 625.056 603.56 619.705 603.549L619.615 576.388Z"/><path fill="#1F232A" transform="scale(1.23077 1.23077)" d="M642.326 576.185C644.447 576.156 646.924 575.849 648.701 576.774C649.363 581.225 649.028 593.102 649.003 598.143C652.125 598.234 655.465 597.371 658.057 598.534C659.468 600.672 659.016 600.641 659.113 603.584C653.645 603.463 647.789 603.567 642.288 603.562L642.326 576.185Z"/><path fill="#858D97" transform="scale(1.23077 1.23077)" d="M586.581 351.26C589.58 351.759 590.691 352.215 593.52 353.266L593.561 381.107L586.299 378.485C586.239 369.409 586.333 360.333 586.581 351.26Z"/><path fill="#FAB31E" transform="scale(1.23077 1.23077)" d="M527.433 587.264L531.384 587.168L531.975 587.881C532.219 589.793 532.412 590.137 531.604 591.775C529.12 592.288 518.797 591.534 515.403 591.411L477.902 590.11C475.874 590.09 471.373 590.226 469.855 589.1C473.044 588.26 483.979 588.187 488.05 588.078L527.433 587.264Z"/><path fill="#858D97" transform="scale(1.23077 1.23077)" d="M586.186 386.04L593.029 388.124C593.135 397.244 593.128 406.365 593.007 415.484L585.959 413.856C585.647 404.997 586.032 394.979 586.186 386.04Z"/><path fill="#858D97" transform="scale(1.23077 1.23077)" d="M586.868 316.831C589.367 317.637 591.593 318.81 593.951 319.962C594.304 328.036 594.048 338.418 594.047 346.659C591.879 345.792 589.322 344.556 587.155 343.578C586.663 335.704 586.906 324.938 586.868 316.831Z"/><path fill="#858D97" transform="scale(1.23077 1.23077)" d="M598.91 355.696C600.886 356.66 603.638 357.479 605.77 358.196L605.613 385.561C603.726 385.066 600.985 383.897 599.095 383.161C598.613 374.456 598.872 364.499 598.91 355.696Z"/><path fill="#858D97" transform="scale(1.23077 1.23077)" d="M598.9 390.236L605.593 392.097C605.654 401.101 605.636 410.106 605.537 419.11C603.362 418.745 601.118 418.114 598.971 417.568L598.9 390.236Z"/><path fill="#858D97" transform="scale(1.23077 1.23077)" d="M599.13 322.655L606.017 325.313C606.14 333.842 605.777 342.226 606.04 350.86L605.498 351.253C603.467 351.238 601.161 350.081 599.197 349.292C598.914 340.551 599.087 331.428 599.13 322.655Z"/><path fill="#FAB31E" transform="scale(1.23077 1.23077)" d="M750.655 590.123C745.667 590.58 705.453 592.206 703.167 591.373C702.296 589.865 702.61 590.113 702.72 588.027C705.809 585.619 743.309 588.053 750.037 588.233L750.655 590.123Z"/><path fill="#F2BE6D" fill-opacity="0.98431373" transform="scale(1.23077 1.23077)" d="M750.037 588.233C754.212 588.383 758.626 588.379 762.686 589.261C761.195 590.176 752.815 590.117 750.655 590.123L750.037 588.233Z"/></svg>